<svg width="664" height="260" viewBox="0 0 664 260" fill="none" xmlns="http://www.w3.org/2000/svg">
<g clip-path="url(#clip0_2_12)">
<path d="M263.224 132.592C263.224 126.192 264.504 120.389 267.064 115.184C269.709 109.893 273.293 105.712 277.816 102.64C282.339 99.4827 287.544 97.904 293.432 97.904C298.552 97.904 303.16 99.2267 307.256 101.872C311.437 104.517 314.68 107.803 316.984 111.728V72.56H331.064V150.128C331.064 151.749 331.363 152.901 331.96 153.584C332.557 154.267 333.539 154.651 334.904 154.736V166C332.259 166.427 330.211 166.64 328.76 166.64C326.115 166.64 323.853 165.872 321.976 164.336C320.184 162.8 319.245 160.965 319.16 158.832L319.032 153.84C316.472 158.107 313.016 161.435 308.664 163.824C304.312 166.128 299.789 167.28 295.096 167.28C290.488 167.28 286.221 166.384 282.296 164.592C278.456 162.8 275.085 160.283 272.184 157.04C269.368 153.797 267.149 150.085 265.528 145.904C263.992 141.723 263.224 137.285 263.224 132.592ZM316.984 141.936V124.4C316.045 121.669 314.509 119.237 312.376 117.104C310.328 114.885 307.981 113.136 305.336 111.856C302.776 110.576 300.216 109.936 297.656 109.936C294.669 109.936 291.939 110.576 289.464 111.856C287.075 113.136 284.984 114.843 283.192 116.976C281.485 119.109 280.163 121.541 279.224 124.272C278.285 127.003 277.816 129.861 277.816 132.848C277.816 135.92 278.328 138.821 279.352 141.552C280.376 144.197 281.827 146.587 283.704 148.72C285.667 150.768 287.885 152.389 290.36 153.584C292.92 154.693 295.693 155.248 298.68 155.248C300.557 155.248 302.435 154.907 304.312 154.224C306.275 153.541 308.109 152.603 309.816 151.408C311.608 150.213 313.101 148.805 314.296 147.184C315.576 145.563 316.472 143.813 316.984 141.936ZM348.948 166V99.056H363.028V166H348.948ZM348.948 88.048V72.56H363.028V88.048H348.948ZM375.084 146.416C375.084 142.149 376.279 138.437 378.668 135.28C381.143 132.037 384.513 129.563 388.78 127.856C393.047 126.064 397.996 125.168 403.628 125.168C406.615 125.168 409.644 125.381 412.716 125.808C415.873 126.235 418.647 126.917 421.036 127.856V123.632C421.036 118.939 419.628 115.269 416.812 112.624C413.996 109.979 409.943 108.656 404.652 108.656C400.897 108.656 397.356 109.339 394.028 110.704C390.7 111.984 387.159 113.819 383.404 116.208L378.668 106.736C383.105 103.749 387.543 101.531 391.98 100.08C396.503 98.6293 401.239 97.904 406.188 97.904C415.148 97.904 422.188 100.293 427.308 105.072C432.513 109.765 435.116 116.464 435.116 125.168V150.128C435.116 151.749 435.372 152.901 435.884 153.584C436.481 154.267 437.463 154.651 438.828 154.736V166C437.548 166.256 436.396 166.427 435.372 166.512C434.348 166.597 433.495 166.64 432.812 166.64C429.825 166.64 427.564 165.915 426.028 164.464C424.492 163.013 423.596 161.307 423.34 159.344L422.956 155.504C420.055 159.259 416.343 162.16 411.82 164.208C407.297 166.256 402.732 167.28 398.124 167.28C393.687 167.28 389.719 166.384 386.22 164.592C382.721 162.715 379.991 160.197 378.028 157.04C376.065 153.883 375.084 150.341 375.084 146.416ZM417.708 150.512C418.732 149.403 419.543 148.293 420.14 147.184C420.737 146.075 421.036 145.093 421.036 144.24V136.56C418.647 135.621 416.129 134.939 413.484 134.512C410.839 134 408.236 133.744 405.676 133.744C400.556 133.744 396.375 134.768 393.132 136.816C389.975 138.864 388.396 141.68 388.396 145.264C388.396 147.227 388.908 149.104 389.932 150.896C391.041 152.688 392.577 154.139 394.54 155.248C396.588 156.357 399.105 156.912 402.092 156.912C405.164 156.912 408.108 156.315 410.924 155.12C413.74 153.925 416.001 152.389 417.708 150.512ZM452.326 72.56H466.406V146.672C466.406 150.085 466.918 152.261 467.942 153.2C468.966 154.139 470.246 154.608 471.782 154.608C473.489 154.608 475.067 154.437 476.518 154.096C478.054 153.755 479.377 153.328 480.486 152.816L482.534 163.952C480.486 164.805 478.054 165.531 475.238 166.128C472.422 166.725 469.905 167.024 467.686 167.024C462.907 167.024 459.153 165.701 456.422 163.056C453.691 160.325 452.326 156.571 452.326 151.792V72.56ZM490.698 166V99.056H504.778V166H490.698ZM490.698 88.048V72.56H504.778V88.048H490.698ZM525.538 166V111.6H516.578V100.72H525.538V98.032C525.538 92.5707 526.391 87.8347 528.098 83.824C529.89 79.8133 532.365 76.7413 535.522 74.608C538.765 72.3893 542.562 71.28 546.914 71.28C549.645 71.28 552.333 71.664 554.978 72.432C557.623 73.1147 560.141 74.096 562.53 75.376L559.458 85.872C558.178 85.0187 556.642 84.3787 554.85 83.952C553.143 83.44 551.479 83.184 549.858 83.184C546.615 83.184 544.098 84.4213 542.306 86.896C540.514 89.3707 539.618 92.9547 539.618 97.648V100.72H556.77V111.6H539.618V166H525.538ZM569.627 181.744C570.907 181.915 572.144 182.085 573.339 182.256C574.619 182.512 575.643 182.64 576.411 182.64C577.862 182.64 579.099 182.171 580.123 181.232C581.232 180.379 582.342 178.757 583.451 176.368C584.56 173.979 585.926 170.523 587.547 166L560.027 99.056H574.747L595.227 151.664L613.403 99.056H626.971L596.635 181.488C595.696 183.963 594.331 186.224 592.539 188.272C590.747 190.405 588.528 192.069 585.883 193.264C583.238 194.459 580.123 195.056 576.539 195.056C575.515 195.056 574.448 194.971 573.339 194.8C572.23 194.629 570.992 194.373 569.627 194.032V181.744Z" fill="white"/>
<path d="M100.475 23.3348C98.9721 15.5631 91.9931 10.0603 84.1854 10.4537L48.772 12.2226C41.7656 12.5933 35.9324 17.623 34.5444 24.5156C15.4679 119.25 76.5079 212.981 170.865 233.845C177.73 235.363 184.689 232.062 187.862 225.804L203.801 194.131C207.318 187.149 205.108 178.541 198.607 174.024L165.078 150.611C159.385 146.633 151.814 146.839 146.525 151.149L127.315 166.62C103.032 147.931 85.6879 121.298 78.4158 91.532L100.326 80.2579C106.415 77.1245 109.657 70.3219 108.32 63.5068L100.467 23.3731L100.475 23.3348Z" fill="white"/>
</g>
<defs>
<clipPath id="clip0_2_12">
<rect width="664" height="260" fill="white"/>
</clipPath>
</defs>
</svg>
