<svg width="664" height="260" viewBox="0 0 664 260" fill="none" xmlns="http://www.w3.org/2000/svg">
<path d="M29.24 175V84.12H61.496C71.3093 84.12 79.5013 86.168 86.072 90.264C92.6427 94.2747 97.5493 99.736 100.792 106.648C104.12 113.475 105.784 121.069 105.784 129.432C105.784 138.648 103.949 146.669 100.28 153.496C96.696 160.323 91.576 165.613 84.92 169.368C78.264 173.123 70.456 175 61.496 175H29.24ZM91.192 129.432C91.192 123.032 89.9973 117.4 87.608 112.536C85.304 107.587 81.9333 103.747 77.496 101.016C73.144 98.2 67.8107 96.792 61.496 96.792H43.576V162.328H61.496C67.896 162.328 73.272 160.877 77.624 157.976C82.0613 155.075 85.432 151.149 87.736 146.2C90.04 141.251 91.192 135.661 91.192 129.432ZM118.948 175V108.056H133.028V175H118.948ZM118.948 97.048V81.56H133.028V97.048H118.948ZM145.084 155.416C145.084 151.149 146.279 147.437 148.668 144.28C151.143 141.037 154.513 138.563 158.78 136.856C163.047 135.064 167.996 134.168 173.628 134.168C176.615 134.168 179.644 134.381 182.716 134.808C185.873 135.235 188.647 135.917 191.036 136.856V132.632C191.036 127.939 189.628 124.269 186.812 121.624C183.996 118.979 179.943 117.656 174.652 117.656C170.897 117.656 167.356 118.339 164.028 119.704C160.7 120.984 157.159 122.819 153.404 125.208L148.668 115.736C153.105 112.749 157.543 110.531 161.98 109.08C166.503 107.629 171.239 106.904 176.188 106.904C185.148 106.904 192.188 109.293 197.308 114.072C202.513 118.765 205.116 125.464 205.116 134.168V159.128C205.116 160.749 205.372 161.901 205.884 162.584C206.481 163.267 207.463 163.651 208.828 163.736V175C207.548 175.256 206.396 175.427 205.372 175.512C204.348 175.597 203.495 175.64 202.812 175.64C199.825 175.64 197.564 174.915 196.028 173.464C194.492 172.013 193.596 170.307 193.34 168.344L192.956 164.504C190.055 168.259 186.343 171.16 181.82 173.208C177.297 175.256 172.732 176.28 168.124 176.28C163.687 176.28 159.719 175.384 156.22 173.592C152.721 171.715 149.991 169.197 148.028 166.04C146.065 162.883 145.084 159.341 145.084 155.416ZM187.708 159.512C188.732 158.403 189.543 157.293 190.14 156.184C190.737 155.075 191.036 154.093 191.036 153.24V145.56C188.647 144.621 186.129 143.939 183.484 143.512C180.839 143 178.236 142.744 175.676 142.744C170.556 142.744 166.375 143.768 163.132 145.816C159.975 147.864 158.396 150.68 158.396 154.264C158.396 156.227 158.908 158.104 159.932 159.896C161.041 161.688 162.577 163.139 164.54 164.248C166.588 165.357 169.105 165.912 172.092 165.912C175.164 165.912 178.108 165.315 180.924 164.12C183.74 162.925 186.001 161.389 187.708 159.512ZM222.326 81.56H236.406V155.672C236.406 159.085 236.918 161.261 237.942 162.2C238.966 163.139 240.246 163.608 241.782 163.608C243.489 163.608 245.067 163.437 246.518 163.096C248.054 162.755 249.377 162.328 250.486 161.816L252.534 172.952C250.486 173.805 248.054 174.531 245.238 175.128C242.422 175.725 239.905 176.024 237.686 176.024C232.907 176.024 229.153 174.701 226.422 172.056C223.691 169.325 222.326 165.571 222.326 160.792V81.56ZM260.698 175V108.056H274.778V175H260.698ZM260.698 97.048V81.56H274.778V97.048H260.698ZM295.538 120.6H286.578V109.72H295.538V107.032C295.538 103.533 296.093 100.205 297.202 97.048C298.311 93.8053 299.975 90.9467 302.194 88.472C304.413 85.912 307.101 83.9067 310.258 82.456C313.501 81.0053 317.255 80.28 321.522 80.28C324.679 80.28 327.623 80.6213 330.354 81.304C333.17 81.9867 335.73 82.9253 338.034 84.12C340.423 85.2293 342.514 86.424 344.306 87.704L338.546 98.2C336.669 96.4933 334.279 95.0853 331.378 93.976C328.477 92.8667 325.49 92.312 322.418 92.312C319.517 92.312 317.085 92.9947 315.122 94.36C313.245 95.7253 311.837 97.5173 310.898 99.736C310.045 101.955 309.618 104.259 309.618 106.648V109.72H344.69V175H330.61V120.6H309.618V175H295.538V120.6ZM360.933 175V158.616H372.581V175H360.933ZM417.159 176.28C411.954 176.28 407.218 175.384 402.951 173.592C398.77 171.715 395.143 169.155 392.071 165.912C388.999 162.669 386.61 158.957 384.903 154.776C383.282 150.595 382.471 146.157 382.471 141.464C382.471 135.149 383.879 129.389 386.695 124.184C389.596 118.979 393.607 114.797 398.727 111.64C403.932 108.483 410.076 106.904 417.159 106.904C423.986 106.904 429.916 108.44 434.951 111.512C440.071 114.499 443.826 118.509 446.215 123.544L432.519 127.896C430.983 125.08 428.807 122.904 425.991 121.368C423.26 119.747 420.231 118.936 416.903 118.936C413.148 118.936 409.735 119.917 406.663 121.88C403.676 123.757 401.287 126.403 399.495 129.816C397.788 133.144 396.935 137.027 396.935 141.464C396.935 145.731 397.831 149.613 399.623 153.112C401.415 156.525 403.804 159.256 406.791 161.304C409.863 163.267 413.276 164.248 417.031 164.248C419.335 164.248 421.554 163.864 423.687 163.096C425.906 162.243 427.826 161.133 429.447 159.768C431.068 158.317 432.22 156.739 432.903 155.032L446.727 159.128C445.276 162.456 443.1 165.4 440.199 167.96C437.383 170.52 434.012 172.568 430.087 174.104C426.247 175.555 421.938 176.28 417.159 176.28ZM487.778 176.28C482.487 176.28 477.751 175.384 473.57 173.592C469.389 171.715 465.762 169.155 462.69 165.912C459.703 162.669 457.399 159 455.778 154.904C454.157 150.723 453.346 146.285 453.346 141.592C453.346 136.899 454.157 132.461 455.778 128.28C457.399 124.099 459.703 120.429 462.69 117.272C465.762 114.029 469.389 111.512 473.57 109.72C477.837 107.843 482.573 106.904 487.778 106.904C492.983 106.904 497.677 107.843 501.858 109.72C506.125 111.512 509.751 114.029 512.738 117.272C515.81 120.429 518.157 124.099 519.778 128.28C521.399 132.461 522.21 136.899 522.21 141.592C522.21 146.285 521.399 150.723 519.778 154.904C518.157 159 515.81 162.669 512.738 165.912C509.751 169.155 506.125 171.715 501.858 173.592C497.677 175.384 492.983 176.28 487.778 176.28ZM467.81 141.72C467.81 145.987 468.706 149.827 470.498 153.24C472.29 156.653 474.679 159.341 477.666 161.304C480.653 163.267 484.023 164.248 487.778 164.248C491.447 164.248 494.775 163.267 497.762 161.304C500.834 159.256 503.266 156.525 505.058 153.112C506.85 149.613 507.746 145.773 507.746 141.592C507.746 137.325 506.85 133.485 505.058 130.072C503.266 126.659 500.834 123.971 497.762 122.008C494.775 119.96 491.447 118.936 487.778 118.936C484.023 118.936 480.653 119.96 477.666 122.008C474.679 124.056 472.29 126.787 470.498 130.2C468.706 133.528 467.81 137.368 467.81 141.72ZM637.098 175H623.018V137.496C623.018 131.267 621.994 126.701 619.946 123.8C617.898 120.899 614.911 119.448 610.986 119.448C607.061 119.448 603.391 120.941 599.978 123.928C596.65 126.829 594.303 130.627 592.938 135.32V175H578.858V137.496C578.858 131.267 577.834 126.701 575.786 123.8C573.738 120.899 570.794 119.448 566.954 119.448C563.029 119.448 559.359 120.899 555.946 123.8C552.618 126.701 550.229 130.499 548.778 135.192V175H534.698V108.056H547.498V121.496C550.143 116.803 553.599 113.219 557.866 110.744C562.218 108.184 567.167 106.904 572.714 106.904C578.261 106.904 582.613 108.355 585.77 111.256C589.013 114.157 591.018 117.784 591.786 122.136C594.687 117.187 598.229 113.432 602.41 110.872C606.677 108.227 611.541 106.904 617.002 106.904C620.927 106.904 624.213 107.629 626.858 109.08C629.503 110.531 631.551 112.536 633.002 115.096C634.453 117.571 635.477 120.472 636.074 123.8C636.757 127.043 637.098 130.499 637.098 134.168V175Z" fill="white"/>
</svg>
